<svg width="34" height="34" viewBox="0 0 34 34" fill="none" xmlns="http://www.w3.org/2000/svg">
<path d="M29.2511 3.78857L18.6328 11.675L20.5964 7.0221L29.2511 3.78857Z" fill="#E2761B" stroke="#E2761B" stroke-linecap="round" stroke-linejoin="round"/>
<path d="M4.73828 3.78857L15.2712 11.7497L13.4037 7.0221L4.73828 3.78857Z" fill="#E4761B" stroke="#E4761B" stroke-linecap="round" stroke-linejoin="round"/>
<path d="M25.4296 22.0693L22.6016 26.402L28.6524 28.0668L30.3919 22.1654L25.4296 22.0693Z" fill="#E4761B" stroke="#E4761B" stroke-linecap="round" stroke-linejoin="round"/>
<path d="M3.61719 22.1654L5.346 28.0668L11.3968 26.402L8.56885 22.0693L3.61719 22.1654Z" fill="#E4761B" stroke="#E4761B" stroke-linecap="round" stroke-linejoin="round"/>
<path d="M11.0553 14.7484L9.36914 17.299L15.3773 17.5657L15.1639 11.1094L11.0553 14.7484Z" fill="#E4761B" stroke="#E4761B" stroke-linecap="round" stroke-linejoin="round"/>
<path d="M22.9335 14.7484L18.7715 11.0347L18.6328 17.5657L24.6303 17.2989L22.9335 14.7484Z" fill="#E4761B" stroke="#E4761B" stroke-linecap="round" stroke-linejoin="round"/>
<path d="M11.3965 26.402L15.0035 24.6412L11.8874 22.208L11.3965 26.402Z" fill="#E4761B" stroke="#E4761B" stroke-linecap="round" stroke-linejoin="round"/>
<path d="M18.9844 24.6412L22.6021 26.402L22.1005 22.208L18.9844 24.6412Z" fill="#E4761B" stroke="#E4761B" stroke-linecap="round" stroke-linejoin="round"/>
<path d="M22.6021 26.4019L18.9844 24.6411L19.2725 26.9996L19.2405 27.992L22.6021 26.4019Z" fill="#D7C1B3" stroke="#D7C1B3" stroke-linecap="round" stroke-linejoin="round"/>
<path d="M11.3965 26.4019L14.7581 27.992L14.7367 26.9996L15.0035 24.6411L11.3965 26.4019Z" fill="#D7C1B3" stroke="#D7C1B3" stroke-linecap="round" stroke-linejoin="round"/>
<path d="M14.8122 20.6498L11.8027 19.7641L13.9264 18.793L14.8122 20.6498Z" fill="#233447" stroke="#233447" stroke-linecap="round" stroke-linejoin="round"/>
<path d="M19.1777 20.6498L20.0635 18.793L22.1978 19.7641L19.1777 20.6498Z" fill="#233447" stroke="#233447" stroke-linecap="round" stroke-linejoin="round"/>
<path d="M11.3983 26.4016L11.9106 22.0688L8.57031 22.1649L11.3983 26.4016Z" fill="#CD6116" stroke="#CD6116" stroke-linecap="round" stroke-linejoin="round"/>
<path d="M22.0918 22.0688L22.604 26.4016L25.432 22.1649L22.0918 22.0688Z" fill="#CD6116" stroke="#CD6116" stroke-linecap="round" stroke-linejoin="round"/>
<path d="M24.6303 17.2988L18.6328 17.5656L19.1877 20.6497L20.0735 18.7929L22.2078 19.764L24.6303 17.2988Z" fill="#CD6116" stroke="#CD6116" stroke-linecap="round" stroke-linejoin="round"/>
<path d="M11.8042 19.764L13.9386 18.7929L14.8137 20.6497L15.3793 17.5656L9.37109 17.2988L11.8042 19.764Z" fill="#CD6116" stroke="#CD6116" stroke-linecap="round" stroke-linejoin="round"/>
<path d="M9.36914 17.2988L11.8877 22.2078L11.8023 19.764L9.36914 17.2988Z" fill="#E4751F" stroke="#E4751F" stroke-linecap="round" stroke-linejoin="round"/>
<path d="M22.2063 19.764L22.0996 22.2078L24.6288 17.2988L22.2063 19.764Z" fill="#E4751F" stroke="#E4751F" stroke-linecap="round" stroke-linejoin="round"/>
<path d="M15.3781 17.5654L14.8125 20.6495L15.5168 24.2886L15.6769 19.497L15.3781 17.5654Z" fill="#E4751F" stroke="#E4751F" stroke-linecap="round" stroke-linejoin="round"/>
<path d="M18.6319 17.5654L18.3438 19.4863L18.4718 24.2886L19.1868 20.6495L18.6319 17.5654Z" fill="#E4751F" stroke="#E4751F" stroke-linecap="round" stroke-linejoin="round"/>
<path d="M19.1877 20.6499L18.4727 24.289L18.9849 24.6411L22.101 22.208L22.2077 19.7642L19.1877 20.6499Z" fill="#F6851B" stroke="#F6851B" stroke-linecap="round" stroke-linejoin="round"/>
<path d="M11.8027 19.7642L11.8881 22.208L15.0042 24.6411L15.5165 24.289L14.8122 20.6499L11.8027 19.7642Z" fill="#F6851B" stroke="#F6851B" stroke-linecap="round" stroke-linejoin="round"/>
<path d="M19.2402 27.9919L19.2722 26.9995L19.0054 26.7647H14.9822L14.7367 26.9995L14.7581 27.9919L11.3965 26.4019L12.5704 27.3623L14.9502 29.0164H19.0374L21.4279 27.3623L22.6018 26.4019L19.2402 27.9919Z" fill="#C0AD9E" stroke="#C0AD9E" stroke-linecap="round" stroke-linejoin="round"/>
<path d="M18.9856 24.6407L18.4734 24.2886H15.5173L15.0051 24.6407L14.7383 26.9992L14.9837 26.7644H19.007L19.2737 26.9992L18.9856 24.6407Z" fill="#131D23" stroke="#131D23" stroke-linecap="round" stroke-linejoin="round"/>
<path d="M29.7007 12.1872L30.6078 7.83314L29.2525 3.78857L18.9863 11.4082L22.9349 14.7484L28.5161 16.3812L29.7541 14.9405L29.2205 14.5563L30.0742 13.7773L29.4126 13.265L30.2663 12.6141L29.7007 12.1872Z" fill="#763D16" stroke="#763D16" stroke-linecap="round" stroke-linejoin="round"/>
<path d="M3.39453 7.83314L4.30162 12.1872L3.72535 12.6141L4.57909 13.265L3.92812 13.7773L4.78185 14.5563L4.24827 14.9405L5.47551 16.3812L11.0568 14.7484L15.0053 11.4082L4.73916 3.78857L3.39453 7.83314Z" fill="#763D16" stroke="#763D16" stroke-linecap="round" stroke-linejoin="round"/>
<path d="M28.5152 16.3808L22.934 14.748L24.6308 17.2986L22.1016 22.2076L25.4311 22.1649H30.3935L28.5152 16.3808Z" fill="#F6851B" stroke="#F6851B" stroke-linecap="round" stroke-linejoin="round"/>
<path d="M11.0554 14.748L5.47406 16.3808L3.61719 22.1649H8.56885L11.8877 22.2076L9.36923 17.2986L11.0554 14.748Z" fill="#F6851B" stroke="#F6851B" stroke-linecap="round" stroke-linejoin="round"/>
<path d="M18.6334 17.5656L18.9856 11.408L20.6077 7.02197H13.4043L15.0051 11.408L15.3786 17.5656L15.5066 19.5078L15.5173 24.2888H18.4733L18.4947 19.5078L18.6334 17.5656Z" fill="#F6851B" stroke="#F6851B" stroke-linecap="round" stroke-linejoin="round"/>
</svg>
